<?xml version="1.0" encoding="UTF-8" standalone="no"?>
<!-- Created with Inkscape (http://www.inkscape.org/) -->

<svg
   xmlns:dc="http://purl.org/dc/elements/1.1/"
   xmlns:cc="http://creativecommons.org/ns#"
   xmlns:rdf="http://www.w3.org/1999/02/22-rdf-syntax-ns#"
   xmlns:svg="http://www.w3.org/2000/svg"
   xmlns="http://www.w3.org/2000/svg"
   xmlns:sodipodi="http://sodipodi.sourceforge.net/DTD/sodipodi-0.dtd"
   xmlns:inkscape="http://www.inkscape.org/namespaces/inkscape"
   id="svg3491"
   version="1.1"
   inkscape:version="0.91 r13725"
   width="615"
   height="615"
   viewBox="0 0 615 615"
   sodipodi:docname="hand symbol.svg">
  <metadata
     id="metadata3497">
    <rdf:RDF>
      <cc:Work
         rdf:about="">
        <dc:format>image/svg+xml</dc:format>
        <dc:type
           rdf:resource="http://purl.org/dc/dcmitype/StillImage" />
        <dc:title></dc:title>
      </cc:Work>
    </rdf:RDF>
  </metadata>
  <defs
     id="defs3495" />
  <sodipodi:namedview
     pagecolor="#ffffff"
     bordercolor="#666666"
     borderopacity="1"
     objecttolerance="10"
     gridtolerance="10"
     guidetolerance="10"
     inkscape:pageopacity="0"
     inkscape:pageshadow="2"
     inkscape:window-width="640"
     inkscape:window-height="480"
     id="namedview3493"
     showgrid="false"
     inkscape:zoom="0.38373984"
     inkscape:cx="485.77562"
     inkscape:cy="251.75326"
     inkscape:window-x="0"
     inkscape:window-y="0"
     inkscape:window-maximized="0"
     inkscape:current-layer="svg3491" />
  <path
     style="fill:#000000"
     d="m 361.3131,601.43497 c 11.0523,-0.9645 27.2756,-3.79227 38.96435,-6.7916 15.44377,-3.96287 32.5309,-10.10506 34.28566,-12.32443 0.90027,-1.13863 1.26082,-7.05319 1.28867,-21.13983 l 0.0387,-19.55887 17.71133,-18.50991 c 17.06822,-17.8378 17.9355,-18.94527 23.88505,-30.5 13.6192,-26.45006 24.00858,-57.2539 31.19465,-92.49009 5.60184,-27.46811 5.58662,-27.22418 3.1436,-50.38656 -1.20704,-11.44387 -1.9996,-21.55273 -1.76127,-22.46412 0.23834,-0.9114 18.35736,-29.55534 40.26449,-63.65321 21.90714,-34.09786 42.42057,-67.0498 45.58542,-73.22653 9.91843,-19.35752 11.27776,-32.3433 4.72705,-45.15787 -6.26028,-12.24643 -18.46978,-19.36291 -33.32766,-19.42551 -13.83677,-0.0583 -25.69817,6.49143 -37.83385,20.89144 -3.20862,3.8073 -21.16603,29.64736 -39.90537,57.42236 -18.73933,27.775 -34.45668,50.93258 -34.92745,51.4613 -0.47076,0.52871 -0.19638,-1.04629 0.60973,-3.5 2.66193,-8.10265 41.38935,-141.26519 43.91683,-151.00611 6.0655,-23.376448 5.18637,-39.617098 -2.79759,-51.681688 -6.12421,-9.2543 -18.0823,-14.2735 -34.00619,-14.2735 -19.19403,0 -33.72506,10.34174 -44.36352,31.57354 -3.5214,7.02787 -5.8841,14.14359 -32.75162,98.637798 l -19.94098,62.71134 -0.53723,-93.21134 C 364.19226,33.566852 364.48693,38.733822 358.56696,25.958922 351.24801,10.165112 335.73983,2.168502 314.81313,3.397782 c -12.26213,0.7203 -19.01713,3.55394 -26.54419,11.13495 -9.57128,9.63988 -14.5717,23.13387 -15.96677,43.08751 -0.34609,4.95 0.3023,43.564818 1.44086,85.810708 1.13855,42.24588 2.05055,80.04588 2.02666,84 l -0.0434,7.18929 -26.27365,-70 c -14.45054,-38.5 -27.97985,-73.375001 -30.06516,-77.500001 -9.72885,-19.244877 -20.59543,-31.725827 -32.57434,-37.413657 -5.94723,-2.82387 -7.35042,-3.0827 -16.5,-3.04349 -18.04708,0.0773 -27.42112,4.81601 -33.5,16.93461 -3.46088,6.89948 -3.49915,7.11741 -3.42383,19.5 0.0457,7.512327 0.79311,16.323437 1.86811,22.022538 0.98556,5.225 13.66452,50.98092 28.17546,101.67982 l 26.38352,92.17982 -1.97668,8.27606 c -1.08717,4.55183 -2.52672,12.68341 -3.19899,18.07017 -0.67227,5.38677 -1.52629,9.79413 -1.89783,9.79413 -0.37154,0 -2.87023,-0.9826 -5.55264,-2.18354 -2.68242,-1.20095 -10.11346,-4.01799 -16.51344,-6.26009 l -11.63631,-4.07653 -5.97056,-7.98992 c -15.22587,-20.37557 -34.35519,-34.21699 -54.756814,-39.62044 -11.86236,-3.14179 -28.49966,-3.15466 -38.45067,-0.0297 -12.96113,4.07018 -22.81517,9.60537 -45.7613804,25.70499 -2.31663,1.6254 -4.20182001,3.63027 -4.18933001,4.45527 0.0125,0.825 19.62104041,18.15 43.57455041,38.5 l 43.55182,37 38.321744,46 c 35.66147,42.80672 39.14197,46.66749 50.1375,55.61531 17.21582,14.00969 39.13458,30.30886 53.63551,39.88426 l 12.68025,8.37311 0,26.25842 0,26.25842 13.75,4.46773 c 31.88281,10.35957 58.85666,14.81629 87.60595,14.47461 7.77923,-0.0925 15.94405,-0.32519 18.14405,-0.51717 z m -60,-5.25339 c -15.44686,-2.79685 -32.26575,-7.05275 -45.5,-11.51344 -5.775,-1.94651 -10.60503,-3.54108 -10.7334,-3.5435 -0.12836,-0.002 -0.35336,-11.77761 -0.5,-26.16709 l -0.2666,-26.16269 -15,-10.09894 c -18.99887,-12.79124 -50.39975,-36.77246 -63.16047,-48.23638 -1.73826,-1.56162 -19.76746,-22.8643 -40.06488,-47.3393 l -36.904404,-44.5 -42.68512,-36.42847 C 23.021406,322.1561 3.8131056,305.49023 3.8131056,305.15649 c 0,-0.91648 17.5167104,-13.16557 25.7243404,-17.98853 8.65031,-5.08309 18.91689,-9.37613 26.11345,-10.91951 16.36959,-3.51065 38.17438,1.06291 54.967124,11.52936 9.3809,5.84686 23.13395,18.93546 30.74556,29.26016 l 5.94953,8.07017 9.5,3.14712 c 5.225,1.73091 13.40403,4.81838 18.17562,6.86103 4.77159,2.04266 9.11869,3.44009 9.66021,3.10541 0.54152,-0.33467 1.71224,-5.87035 2.60161,-12.3015 0.88936,-6.43114 2.48573,-15.08959 3.54748,-19.24099 l 1.93045,-7.54801 -25.56076,-89.25548 c -14.05841,-49.09051 -26.72459,-94.20548 -28.14706,-100.25548 -2.11034,-8.97564 -2.59746,-13.588341 -2.64693,-25.064538 -0.0592,-13.73057 0.0112,-14.20549 2.96187,-20 2.20907,-4.33808 4.31972,-6.80646 7.84267,-9.17187 6.77397,-4.54825 11.65231,-5.76359 23.13484,-5.76359 9.00091,0 10.58774,0.28858 15.88273,2.88849 7.0521,3.46266 16.60867,12.64916 22.48213,21.61151 8.00653,12.21722 13.9432,26.550488 40.694,98.249998 17.09872,45.8293 27.25219,71.75 28.10538,71.75 1.68445,0 1.74065,6.46807 -0.75149,-86.5 -2.34773,-87.581148 -2.19846,-105.975268 0.95604,-117.813948 4.09834,-15.38083 11.47883,-25.1831 22.95605,-30.4887 7.49129,-3.46301 22.80958,-4.30038 31.79559,-1.73809 11.25172,3.20834 19.87029,10.76452 24.55944,21.53205 5.31395,12.20224 5.16765,9.3541 5.76464,112.222628 0.44626,76.89506 0.80461,95.55988 1.82257,94.93042 0.6969,-0.43094 12.29095,-35.40221 25.76456,-77.71394 13.47361,-42.31173 25.64632,-79.855418 27.05048,-83.430418 10.6178,-27.0331 28.84366,-39.89387 52.3529,-36.94195 9.5649,1.20101 16.11415,4.21803 21.38228,9.85008 6.62777,7.08563 9.01231,14.21159 9.06566,27.09187 0.0557,13.455217 0.1615,13.040797 -27.69456,108.499998 -12.35821,42.35 -22.70845,78.0387 -23.00054,79.30823 -0.39656,1.72357 -0.13485,2.23015 1.03325,2 0.86038,-0.16953 18.06086,-24.67928 38.2233,-54.46611 20.16243,-29.78684 38.7859,-56.78684 41.38549,-60 6.17132,-7.62792 15.7864,-15.74225 22.6701,-19.13167 4.77365,-2.35047 6.68857,-2.70284 14.5,-2.66815 7.76044,0.0345 9.79609,0.42503 14.78016,2.83573 12.34926,5.9731 19.71984,17.20627 19.71984,30.05415 0,14.61749 -4.44433,23.26127 -42.27566,82.22191 -16.17903,25.21525 -34.68022,54.07227 -41.11376,64.12671 l -11.69734,18.28079 2.04338,19.75606 c 2.56663,24.81497 2.56241,25.19308 -0.46741,41.86578 -6.9703,38.35661 -17.10697,70.495 -31.31894,99.29694 l -7.6386,15.48036 -18.2641,19.01964 -18.26409,19.01963 -0.002,20.16246 -0.002,20.16247 -8.25,3.16464 c -12.56335,4.8192 -30.07335,9.57191 -43.84437,11.90059 -17.60115,2.97635 -16.95848,2.93746 -43.40564,2.62631 -19.38083,-0.22803 -26.30958,-0.70055 -36,-2.45513 z m 68,-14.55857 c 11.9184,-1.67021 26.09737,-4.8182 36.75001,-8.15916 l 7.75,-2.43062 0,-15.92235 0,-15.92235 19.25,-20.86124 c 18.68808,-20.25229 19.42209,-21.20928 25.14542,-32.78415 14.66019,-29.64877 24.96789,-61.28236 32.58842,-100.01154 l 2.77215,-14.08865 -2.34862,-22.91135 c -1.29174,-12.60125 -2.36184,-23.85065 -2.37799,-24.99867 -0.0162,-1.14802 10.60395,-18.47302 23.60025,-38.5 68.5944,-105.70234 67.06378,-103.22249 70.85753,-114.8011 1.24579,-3.80219 1.6081,-7.12444 1.23076,-11.28575 -0.88777,-9.7905 -4.76707,-13.65724 -14.59573,-14.54848 -7.98469,-0.72402 -13.08794,1.80966 -21.30414,10.57716 -3.79663,4.05139 -24.27676,33.03137 -51.31805,72.61653 -24.75,36.231 -45.67884,66.7242 -46.50854,67.76266 -1.45559,1.82186 -1.9733,1.68654 -14.75,-3.85536 -7.2828,-3.15892 -13.24146,-6.09492 -13.24146,-6.52446 0,-0.42954 12.86768,-42.98488 28.59484,-94.56743 15.72717,-51.58255 29.48112,-98.045461 30.56435,-103.250891 4.56858,-21.954277 -2.52001,-33.953627 -20.09347,-34.013607 -11.3912,-0.0389 -19.81743,6.33393 -27.31272,20.65676 -5.14988,9.84098 -7.14897,16.023377 -35.0392,108.362308 l -25.23288,83.54103 -7.49047,-1.15833 c -4.11975,-0.63708 -10.75296,-1.7087 -14.74046,-2.38138 l -7.25,-1.22305 0,-107.19955 c 0,-91.651508 -0.2157,-108.027668 -1.48718,-112.909208 -3.23933,-12.43666 -10.35316,-18.60841 -22.44617,-19.47366 -11.29081,-0.80785 -18.72008,3.19887 -23.52952,12.68985 -6.8067,13.43237 -6.91188,16.53697 -4.05396,119.660038 1.38426,49.94854 2.51683,94.56116 2.51683,99.13915 l 0,8.32362 -16.12182,-0.27477 -16.12182,-0.27477 -30.37735,-81 c -16.70754,-44.55 -32.40617,-85.130031 -34.88586,-90.177831 -4.9137,-10.002617 -12.41951,-19.110287 -17.88757,-21.705047 -4.69583,-2.22832 -14.20889,-2.10963 -18.62117,0.23233 -1.99221,1.05743 -4.55502,3.73398 -5.9844,6.25 -2.249,3.95874 -2.49162,5.45475 -2.41657,14.900547 0.0493,6.20066 0.78128,13.366231 1.78772,17.500001 0.93736,3.85 14.10442,48.60938 29.26014,99.46528 l 27.55584,92.46528 -3.57832,14.53472 c -3.23141,13.12564 -6.60881,30.28142 -6.60881,33.56997 0,0.7003 3.26249,2.94971 7.24999,4.99869 20.61019,10.59058 43.15178,28.55951 55.6959,44.39775 l 3.11034,3.92713 -6.55586,4.67816 -6.55587,4.67817 -11.22649,-10.87555 c -26.8135,-25.9753 -56.35485,-43.84086 -93.98633,-56.83956 l -14.76832,-5.10128 -3.42992,-5.20807 C 113.85744,304.75506 95.089306,292.0836 70.813106,290.44129 c -6.24439,-0.42244 -10.2223,-0.13244 -14.99027,1.09282 -11.82784,3.03949 -28.34324,12.61944 -26.60475,15.43239 0.40832,0.66066 17.4121,15.23859 37.78618,32.39539 l 37.043794,31.19418 33.85141,40.6533 c 18.61827,22.35932 36.44739,43.02589 39.62026,45.92571 13.07737,11.95198 56.23668,45.22503 78.53152,60.54275 l 5.73816,3.94241 0.0118,24.67904 0.0118,24.67904 5.25,1.50585 c 10.22196,2.93194 21.39125,5.56282 32.75,7.71413 14.87479,2.81724 53.86022,3.61642 69.5,1.42471 z m -62,-3.01033 c -11.92373,-1.85799 -29.99942,-5.8283 -37.56018,-8.25004 l -5.43982,-1.7424 -0.5,-24.67922 -0.5,-24.67923 -15,-10.72526 c -26.41883,-18.88993 -57.85188,-43.40208 -69.74903,-54.39174 -2.694,-2.4885 -20.05255,-22.74843 -38.57457,-45.02207 L 106.31311,368.6252 69.813106,337.87072 c -20.075,-16.91497 -36.61733,-31.10557 -36.76074,-31.53469 -0.36186,-1.0828 9.42518,-6.88657 16.98195,-10.0704 5.64783,-2.37955 7.48468,-2.64012 18.27879,-2.59293 13.3404,0.0583 19.81868,1.83866 31.18579,8.57036 7.809364,4.62476 20.604264,17.59193 27.724724,28.09799 l 5.91051,8.7208 11.08949,3.66399 c 39.23107,12.96202 70.21374,31.52695 98.67709,59.12767 5.82319,5.6467 11.1444,10.26673 11.82493,10.26673 2.13216,0 16.03838,-10.42165 16.06353,-12.03838 0.0319,-2.05162 -14.15886,-18.1767 -21.56927,-24.50932 -12.52896,-10.70672 -27.48779,-20.88796 -40.1568,-27.3314 -2.3375,-1.18885 -4.25,-2.82446 -4.25,-3.63469 0,-3.14235 5.2136,-27.99955 7.59964,-36.23329 1.47155,-5.078 2.25891,-9.72298 1.90043,-11.21149 -0.60445,-2.50985 -2.97977,-10.5161 -36.35601,-122.54143 -20.55637,-68.99622 -21.2514,-71.63437 -21.89206,-83.096461 -0.60912,-10.897677 0.55545,-15.149267 5.28768,-19.304227 9.394,-8.24804 21.00988,-3.63571 30.90156,12.27012 5.48392,8.818147 1.37252,-1.53453 37.97807,95.630568 l 31.08069,82.5 18.9008,0.27262 18.9008,0.27262 -0.63212,-17.27262 c -0.34766,-9.49994 -1.61932,-54.38205 -2.82592,-99.73802 -2.35695,-88.597888 -2.22917,-94.583448 2.27612,-106.624918 2.9461,-7.87417 9.02627,-13.84928 15.49133,-15.22367 9.27411,-1.97156 18.47038,1.34071 23.30273,8.39305 5.30779,7.74621 5.16816,4.41751 5.10244,121.646268 l -0.061,108.72533 2.27239,0.50851 c 4.60715,1.03097 27.89021,4.54083 30.12217,4.54083 2.18963,0 3.66229,-4.48794 29.11306,-88.72199 14.74372,-48.7971 28.33245,-92.334601 30.19718,-96.749998 8.56894,-20.28992 19.7137,-29.25303 32.95528,-26.50408 9.2388,1.91796 14.38475,9.24136 14.38475,20.47148 0,6.66505 -3.11349,17.613547 -32.11623,112.935848 -15.88607,52.21219 -28.88377,95.65392 -28.88377,96.53718 0,1.12014 4.5121,3.51887 14.91647,7.92991 8.20405,3.4782 15.37182,6.16148 15.92836,5.96283 0.55654,-0.19865 21.99346,-31.05208 47.63761,-68.56318 25.64415,-37.5111 48.73889,-70.55388 51.32164,-73.42842 6.74824,-7.51059 12.44711,-10.86958 18.44136,-10.86958 10.02626,0 14.21925,4.91051 13.57836,15.90196 -0.31404,5.3859 -1.2177,8.25145 -4.91887,15.59804 -2.49378,4.95 -23.657,38.475 -47.02938,74.5 -23.37238,36.025 -42.81779,66.03893 -43.21203,66.69762 -0.39425,0.65869 0.43144,12.48758 1.83486,26.28642 l 2.55166,25.08881 -3.48333,17.21357 c -7.7358,38.22799 -18.60457,70.57251 -33.256,98.967 -3.87834,7.51624 -7.1808,11.615 -23.36598,29 l -18.84927,20.24658 -0.0477,16.09238 -0.0477,16.09237 -8.75,2.64842 c -14.25814,4.31559 -31.16758,7.48709 -48.25001,9.04965 -8.72987,0.79855 -37.62315,-0.35134 -47.5,-1.89038 z"
     id="path3501"
     inkscape:connector-curvature="0" />
</svg>
